<svg width="835" height="830" viewBox="0 0 835 830" fill="none" xmlns="http://www.w3.org/2000/svg">
<path fill-rule="evenodd" clip-rule="evenodd" d="M477.994 32.1141C452.566 59.035 421.074 95.7415 410.563 136.873C407.116 150.362 405.925 164.328 407.943 178.581C405.858 188.319 404.987 198.291 405.68 208.426C405.613 208.683 405.546 208.94 405.48 209.198C403.43 217.219 402.178 225.409 401.924 233.728C400.993 236.56 400.156 239.414 399.421 242.291C398.947 244.144 398.516 246.007 398.13 247.878C375.785 272.967 352.272 304.307 343.471 338.749C338.213 359.325 338.203 381.011 346.828 403.13C355.452 425.247 372.699 447.772 401.915 470.044C469.962 521.918 534.104 523.419 583.49 524.575C588.076 524.682 592.534 524.786 596.856 524.928C622.314 525.761 642.98 527.881 657.224 539.363C671.449 550.83 679.341 571.701 679.044 610.251L679.615 610.256C679.913 571.655 672.017 550.554 657.583 538.918C643.169 527.299 622.306 525.189 596.875 524.357C592.551 524.215 588.092 524.111 583.507 524.004C534.127 522.846 470.156 521.348 402.261 469.59C373.105 447.364 355.937 424.917 347.36 402.923C338.785 380.931 338.791 359.368 344.024 338.891C352.707 304.911 375.778 273.932 397.906 248.99C397.695 250.068 397.498 251.148 397.317 252.231C396.761 253.54 396.224 254.855 395.705 256.176C381.123 275.726 368.351 297.695 362.371 321.098C357.113 341.673 357.103 363.36 365.728 385.479C374.352 407.595 391.598 430.12 420.814 452.392C488.862 504.266 553.004 505.767 602.39 506.923L602.393 506.923L602.407 506.923C606.987 507.031 611.439 507.135 615.756 507.276C641.214 508.109 661.88 510.229 676.124 521.711C690.349 533.178 698.241 554.05 697.944 592.6L698.515 592.604C698.813 554.003 690.917 532.902 676.483 521.267C662.069 509.647 641.205 507.537 615.775 506.705C611.451 506.564 606.993 506.459 602.409 506.352L602.407 506.352C553.027 505.195 489.056 503.696 421.161 451.938C392.005 429.712 374.837 407.266 366.26 385.271C357.685 363.279 357.691 341.716 362.924 321.239C368.714 298.583 380.9 277.261 394.938 258.172C394.685 258.845 394.437 259.518 394.194 260.193C387.217 272.508 381.538 285.482 378.102 298.93C372.844 319.506 372.834 341.192 381.459 363.311C390.083 385.427 407.329 407.953 436.545 430.225C504.593 482.099 568.735 483.6 618.121 484.756L618.124 484.756L618.138 484.756C622.718 484.863 627.17 484.968 631.487 485.109C656.945 485.942 677.611 488.062 691.855 499.544C706.08 511.011 713.972 531.882 713.675 570.432L714.246 570.437C714.544 531.836 706.648 510.734 692.214 499.099C677.8 487.48 656.936 485.37 631.506 484.538C627.182 484.396 622.724 484.292 618.14 484.184L618.138 484.184C568.758 483.027 504.787 481.528 436.892 429.771C407.736 407.545 390.568 385.098 381.991 363.104C373.416 341.112 373.422 319.549 378.655 299.072C381.815 286.706 386.88 274.739 393.112 263.314C392.104 266.335 391.202 269.383 390.417 272.455C385.159 293.03 385.149 314.717 393.774 336.836C402.398 358.952 419.644 381.478 448.86 403.75C516.907 455.624 581.05 457.125 630.436 458.28L630.439 458.28L630.453 458.281C635.033 458.388 639.485 458.492 643.802 458.634C669.26 459.466 689.926 461.587 704.17 473.069C718.395 484.535 726.287 505.407 725.99 543.957L726.561 543.961C726.859 505.361 718.963 484.259 704.529 472.624C690.114 461.004 669.251 458.894 643.821 458.063C639.497 457.921 635.039 457.817 630.455 457.709L630.453 457.709C581.073 456.552 517.102 455.053 449.207 403.295C420.051 381.07 402.883 358.623 394.306 336.628C385.731 314.636 385.737 293.074 390.97 272.596C392.018 268.496 393.275 264.439 394.715 260.431C395.334 259.339 395.964 258.252 396.603 257.17C394.648 273.219 396.207 289.82 402.778 306.672C411.402 328.788 428.649 351.314 457.865 373.586C525.912 425.459 590.054 426.96 639.44 428.116L639.444 428.116L639.458 428.117C644.037 428.224 648.49 428.328 652.807 428.469C678.265 429.302 698.931 431.422 713.175 442.905C727.399 454.371 735.291 475.243 734.994 513.793L735.566 513.797C735.863 475.196 727.967 454.095 713.533 442.46C699.119 430.84 678.256 428.73 652.825 427.898C648.501 427.757 644.043 427.652 639.46 427.545L639.457 427.545C590.077 426.388 526.106 424.889 458.211 373.131C429.056 350.905 411.887 328.459 403.311 306.464C396.6 289.254 395.145 272.307 397.337 255.937C398.346 254.255 399.377 252.585 400.429 250.929C401.125 250.038 401.823 249.153 402.523 248.273C403.478 256.618 405.519 265.066 408.838 273.579C417.461 295.695 434.708 318.22 463.924 340.492C531.971 392.366 596.114 393.867 645.499 395.023C650.085 395.13 654.543 395.235 658.866 395.376C684.324 396.209 704.99 398.329 719.234 409.811C733.459 421.278 741.351 442.15 741.054 480.7L741.625 480.704C741.922 442.103 734.026 421.002 719.593 409.367C705.178 397.747 684.315 395.637 658.885 394.805C654.56 394.664 650.101 394.559 645.517 394.452C596.137 393.295 532.165 391.796 464.27 340.038C435.115 317.812 417.946 295.366 409.37 273.371C405.995 264.715 403.949 256.125 403.028 247.641C405.96 243.977 408.932 240.41 411.907 236.947C412.07 237.382 412.237 237.818 412.407 238.254C421.031 260.37 438.277 282.895 467.493 305.167C535.54 357.041 599.683 358.542 649.069 359.698C653.654 359.805 658.113 359.91 662.435 360.051C687.893 360.884 708.559 363.004 722.803 374.487C737.028 385.953 744.92 406.825 744.623 445.375L745.194 445.379C745.491 406.778 737.596 385.677 723.162 374.042C708.747 362.422 687.884 360.312 662.454 359.48C658.129 359.339 653.671 359.234 649.086 359.127C599.706 357.97 535.734 356.471 467.84 304.713C438.684 282.487 421.515 260.041 412.939 238.046C412.732 237.515 412.53 236.984 412.333 236.453C416.543 231.568 420.756 226.894 424.867 222.45C434.72 237.667 449.079 252.977 469.007 268.168C537.054 320.042 601.197 321.543 650.583 322.699C655.168 322.806 659.627 322.911 663.949 323.052C689.407 323.885 710.073 326.005 724.317 337.487C738.542 348.954 746.434 369.825 746.137 408.375L746.708 408.38C747.005 369.779 739.11 348.678 724.676 337.042C710.261 325.423 689.398 323.313 663.968 322.481C659.643 322.339 655.185 322.235 650.6 322.128C601.22 320.971 537.248 319.472 469.354 267.714C449.414 252.513 435.08 237.209 425.268 222.017C426.937 220.216 428.589 218.454 430.216 216.731L429.801 216.338C428.205 218.028 426.586 219.756 424.949 221.521C424.512 220.837 424.084 220.154 423.665 219.471C431.165 210.481 438.792 202.139 445.947 194.563L445.532 194.171C438.416 201.705 430.824 210.006 423.351 218.956C422.228 217.105 421.171 215.257 420.178 213.41C432.236 196.435 445.948 181.125 458.262 168.088L457.847 167.696C445.59 180.673 431.923 195.923 419.877 212.847C418.356 209.98 416.988 207.118 415.768 204.264C430.107 178.813 450.052 156.149 467.267 137.924L466.851 137.531C449.726 155.662 429.851 178.231 415.487 203.6C415.129 202.748 414.785 201.897 414.453 201.047C413.341 198.195 412.373 195.35 411.543 192.514C425.119 158.371 451.431 128.011 473.326 104.831L472.911 104.438C451.165 127.46 424.986 157.638 411.285 191.621C410.051 187.258 409.139 182.917 408.523 178.601C408.853 177.066 409.214 175.537 409.603 174.014C420.073 133.041 451.464 96.4295 476.895 69.5056L476.48 69.1133C451.052 96.0343 419.56 132.741 409.049 173.873C408.787 174.898 408.538 175.926 408.303 176.957C406.591 163.32 407.811 149.951 411.117 137.015C421.587 96.0413 452.978 59.4303 478.409 32.5063L477.994 32.1141ZM398.659 248.144C398.535 248.749 398.415 249.355 398.301 249.961C398.727 248.998 399.163 248.038 399.608 247.081C399.292 247.434 398.975 247.788 398.659 248.144ZM400.937 245.604C399.863 247.848 398.839 250.111 397.87 252.391C397.805 252.779 397.742 253.167 397.682 253.555C398.439 252.562 399.2 251.576 399.964 250.596C400.756 249.349 401.56 248.11 402.374 246.879C402.287 246.007 402.211 245.137 402.147 244.267C401.744 244.711 401.341 245.157 400.937 245.604ZM402.092 243.478L401.828 243.769C401.911 243.6 401.995 243.431 402.078 243.263L402.092 243.478ZM402.679 243.683C402.734 244.496 402.799 245.309 402.875 246.124C405.359 242.396 407.936 238.742 410.577 235.166C407.993 237.909 405.351 240.749 402.679 243.683ZM410.863 234.031C408.175 236.877 405.419 239.832 402.628 242.891C402.615 242.674 402.602 242.456 402.591 242.239C404.732 237.995 407.046 233.821 409.495 229.724C409.916 231.157 410.371 232.593 410.863 234.031ZM400.458 245.282C399.938 245.858 399.416 246.438 398.894 247.022C399.224 245.486 399.585 243.956 399.974 242.432C400.549 240.183 401.187 237.948 401.883 235.726C401.859 237.849 401.901 239.98 402.012 242.118C401.484 243.169 400.965 244.223 400.458 245.282ZM411.68 236.335C409.042 239.4 406.405 242.548 403.796 245.775C406.209 242.177 408.709 238.648 411.267 235.194C411.402 235.574 411.54 235.954 411.68 236.335ZM424.548 221.954C420.47 226.36 416.288 230.995 412.107 235.839C411.961 235.44 411.818 235.04 411.678 234.64C415.45 229.572 419.345 224.664 423.279 219.934C423.693 220.607 424.116 221.28 424.548 221.954ZM395.914 257.215C396.011 256.962 396.109 256.71 396.208 256.457C396.295 256.341 396.381 256.226 396.468 256.11C396.577 255.964 396.687 255.818 396.796 255.672L396.786 255.745C396.493 256.234 396.202 256.724 395.914 257.215ZM422.964 219.42C421.849 217.588 420.798 215.759 419.81 213.931C416.34 218.839 413.011 223.886 409.896 229.056C410.368 230.697 410.886 232.341 411.452 233.988C415.198 228.967 419.063 224.105 422.964 219.42ZM409.278 228.975C406.894 232.941 404.636 236.981 402.536 241.087C402.434 238.657 402.421 236.237 402.493 233.828C403.912 229.522 405.547 225.27 407.367 221.079C407.89 223.702 408.525 226.335 409.278 228.975ZM419.507 213.368C416.074 218.216 412.776 223.199 409.683 228.304C408.921 225.581 408.286 222.865 407.769 220.159C410.059 214.972 412.629 209.879 415.416 204.891C416.635 207.711 417.996 210.538 419.507 213.368ZM415.132 204.229C414.711 203.237 414.307 202.245 413.921 201.254C412.894 198.622 411.99 195.996 411.203 193.377C409.266 198.336 407.599 203.374 406.256 208.481C406.502 212.024 406.94 215.588 407.585 219.168C409.856 214.093 412.391 209.11 415.132 204.229ZM407.175 220.092C406.549 216.78 406.1 213.481 405.817 210.2C404.061 217.282 402.933 224.492 402.573 231.803C403.936 227.851 405.479 223.946 407.175 220.092ZM410.939 192.486C409.091 197.153 407.479 201.89 406.148 206.69C405.689 197.718 406.451 188.876 408.188 180.213C408.834 184.283 409.744 188.375 410.939 192.486ZM321.968 352.231C332.479 311.099 363.97 274.392 389.399 247.471L389.814 247.864C364.383 274.788 332.992 311.399 322.522 352.372C317.289 372.849 317.283 394.412 325.858 416.404C334.434 438.399 351.603 460.845 380.758 483.071C448.653 534.829 512.625 536.328 562.005 537.485C566.589 537.592 571.048 537.697 575.373 537.838C600.803 538.67 621.666 540.78 636.081 552.4C650.514 564.035 658.41 585.137 658.113 623.737L657.542 623.733C657.839 585.183 649.947 564.311 635.722 552.845C621.478 541.363 600.812 539.242 575.354 538.409C571.031 538.268 566.573 538.164 561.987 538.056C512.602 536.901 448.459 535.399 380.412 483.526C351.196 461.254 333.949 438.728 325.326 416.612C316.701 394.493 316.71 372.806 321.968 352.231ZM365.988 257.562C340.56 284.483 309.068 321.189 298.557 362.321C293.3 382.896 293.29 404.583 301.915 426.702C310.539 448.818 327.785 471.344 357.001 493.616C425.048 545.49 489.191 546.991 538.577 548.146C543.162 548.254 547.621 548.358 551.943 548.5C577.401 549.332 598.067 551.453 612.311 562.935C626.536 574.401 634.428 595.273 634.131 633.823L634.702 633.827C634.999 595.227 627.104 574.125 612.67 562.49C598.255 550.87 577.392 548.76 551.962 547.929C547.637 547.787 543.179 547.683 538.594 547.575C489.214 546.418 425.242 544.919 357.348 493.161C328.192 470.936 311.023 448.489 302.447 426.494C293.872 404.502 293.878 382.94 299.111 362.462C309.581 321.489 340.972 284.878 366.403 257.954L365.988 257.562ZM273.877 369.975C284.388 328.843 315.879 292.136 341.308 265.215L341.723 265.608C316.292 292.532 284.901 329.143 274.431 370.116C269.198 390.593 269.192 412.156 277.767 434.148C286.343 456.143 303.512 478.589 332.667 500.815C400.562 552.573 464.534 554.072 513.914 555.229C518.498 555.336 522.957 555.441 527.282 555.582C552.712 556.414 573.575 558.524 587.99 570.144C602.423 581.779 610.319 602.88 610.022 641.481L609.451 641.477C609.748 602.927 601.856 582.055 587.631 570.589C573.387 559.106 552.721 556.986 527.263 556.153C522.94 556.012 518.482 555.908 513.896 555.8C464.511 554.644 400.368 553.143 332.321 501.27C303.105 478.998 285.858 456.472 277.235 434.356C268.61 412.237 268.619 390.55 273.877 369.975ZM315.883 271.353C290.454 298.274 258.963 334.981 248.452 376.113C243.194 396.688 243.185 418.375 251.81 440.494C260.433 462.61 277.68 485.136 306.896 507.408C374.943 559.281 439.086 560.782 488.471 561.938C493.057 562.046 497.515 562.15 501.838 562.291C527.296 563.124 547.962 565.244 562.206 576.727C576.431 588.193 584.322 609.065 584.026 647.615L584.597 647.619C584.894 609.019 576.998 587.917 562.564 576.282C548.15 564.662 527.287 562.552 501.856 561.72C497.532 561.579 493.073 561.474 488.489 561.367C439.109 560.21 375.137 558.711 307.242 506.953C278.087 484.727 260.918 462.281 252.342 440.286C243.767 418.294 243.773 396.731 249.006 376.254C259.476 335.281 290.867 298.67 316.298 271.746L315.883 271.353ZM222.674 381.51C233.185 340.378 264.676 303.671 290.104 276.75L290.52 277.143C265.089 304.067 233.698 340.678 223.227 381.651C217.994 402.128 217.988 423.691 226.563 445.683C235.14 467.678 252.308 490.124 281.464 512.35C349.359 564.108 413.33 565.607 462.71 566.764L462.713 566.764C467.296 566.871 471.754 566.976 476.078 567.117C501.509 567.949 522.372 570.059 536.786 581.679C551.22 593.314 559.116 614.416 558.819 653.016L558.247 653.012C558.544 614.462 550.652 593.59 536.428 582.124C522.184 570.642 501.517 568.521 476.059 567.688C471.743 567.547 467.29 567.443 462.711 567.336L462.697 567.335L462.693 567.335C413.307 566.18 349.165 564.678 281.118 512.805C251.902 490.533 234.655 468.007 226.031 445.891C217.406 423.772 217.416 402.085 222.674 381.51ZM264.271 282.023C238.842 308.944 207.351 345.651 196.84 386.782C191.582 407.358 191.573 429.044 200.198 451.163C208.821 473.28 226.068 495.805 255.284 518.077C323.331 569.951 387.474 571.452 436.859 572.608C441.445 572.715 445.903 572.82 450.226 572.961C475.684 573.794 496.35 575.914 510.594 587.396C524.819 598.863 532.71 619.734 532.414 658.284L532.985 658.289C533.282 619.688 525.386 598.587 510.953 586.952C496.538 575.332 475.675 573.222 450.245 572.39C445.92 572.249 441.461 572.144 436.877 572.037C387.497 570.88 323.525 569.381 255.63 517.623C226.475 495.397 209.306 472.95 200.73 450.956C192.155 428.964 192.161 407.401 197.394 386.924C207.864 345.95 239.255 309.339 264.686 282.415L264.271 282.023ZM171.162 392.393C181.673 351.262 213.164 314.555 238.592 287.634L239.008 288.026C213.577 314.95 182.186 351.561 171.715 392.535C166.482 413.012 166.476 434.575 175.051 456.567C183.628 478.562 200.796 501.008 229.952 523.234C297.847 574.992 361.818 576.491 411.198 577.648C415.783 577.755 420.242 577.86 424.566 578.001C449.997 578.833 470.86 580.943 485.274 592.563C499.708 604.198 507.604 625.299 507.307 663.9L506.735 663.895C507.032 625.346 499.14 604.474 484.916 593.007C470.672 581.525 450.005 579.405 424.547 578.572C420.225 578.431 415.767 578.326 411.181 578.219C361.795 577.063 297.653 575.562 229.606 523.688C200.39 501.416 183.143 478.891 174.519 456.774C165.894 434.656 165.904 412.969 171.162 392.393ZM213.24 293.923C187.812 320.844 156.32 357.55 145.809 398.682C140.551 419.257 140.542 440.944 149.167 463.063C157.79 485.179 175.037 507.705 204.253 529.977C272.3 581.851 336.443 583.352 385.829 584.507C390.414 584.615 394.873 584.719 399.195 584.861C424.653 585.693 445.319 587.814 459.563 599.296C473.788 610.762 481.68 631.634 481.383 670.184L481.954 670.188C482.251 631.588 474.355 610.486 459.922 598.851C445.507 587.231 424.644 585.121 399.214 584.29C394.889 584.148 390.43 584.044 385.846 583.936C336.466 582.779 272.494 581.28 204.6 529.522C175.444 507.297 158.275 484.85 149.699 462.855C141.124 440.863 141.13 419.301 146.363 398.823C156.833 357.85 188.224 321.239 213.655 294.315L213.24 293.923ZM120.905 405.883C131.416 364.751 162.907 328.045 188.336 301.124L188.751 301.516C163.32 328.44 131.929 365.051 121.459 406.025C116.226 426.502 116.22 448.065 124.795 470.057C133.371 492.051 150.54 514.498 179.695 536.724C247.59 588.481 311.562 589.98 360.942 591.137C365.526 591.245 369.985 591.349 374.309 591.491C399.74 592.323 420.603 594.433 435.017 606.052C449.451 617.687 457.347 638.789 457.05 677.389L456.479 677.385C456.775 638.835 448.884 617.964 434.659 606.497C420.415 595.015 399.749 592.895 374.291 592.062C369.968 591.92 365.51 591.816 360.924 591.709C311.539 590.553 247.396 589.052 179.349 537.178C150.133 514.906 132.886 492.38 124.263 470.264C115.638 448.145 115.647 426.459 120.905 405.883ZM163.967 309.395C138.539 336.316 107.048 373.022 96.5369 414.154C91.279 434.729 91.2696 456.416 99.8943 478.535C108.518 500.651 125.765 523.177 154.981 545.449C223.028 597.323 287.171 598.824 336.556 599.979C341.142 600.087 345.6 600.191 349.923 600.332C375.381 601.165 396.047 603.286 410.291 614.768C424.515 626.234 432.407 647.106 432.11 685.656L432.682 685.66C432.979 647.06 425.083 625.958 410.649 614.323C396.235 602.703 375.372 600.593 349.941 599.761C345.617 599.62 341.158 599.516 336.574 599.408C287.193 598.251 223.222 596.752 155.327 544.994C126.172 522.769 109.003 500.322 100.427 478.327C91.8514 456.335 91.8576 434.773 97.0904 414.295C107.561 373.322 138.952 336.711 164.383 309.787L163.967 309.395Z" fill="url(#paint0_radial_2599_9722)" fill-opacity="0.58"/>
<defs>
<radialGradient id="paint0_radial_2599_9722" cx="0" cy="0" r="1" gradientUnits="userSpaceOnUse" gradientTransform="translate(377.668 431.198) rotate(46.5674) scale(307.592 314.614)">
<stop/>
<stop offset="1" stop-color="#1E1E1E" stop-opacity="0"/>
<stop offset="1" stop-color="#0E0E35" stop-opacity="0"/>
<stop offset="1" stop-opacity="0"/>
</radialGradient>
</defs>
</svg>
